# xmcd
#
# Track frame offsets:
#	150
#	16013
#	31141
#	47186
#	61110
#	72500
#	84816
#	100508
#	113930
#	130405
#	145621
#	164233
#	181899
#	197600
#	210348
#	227364
#	242624
#	260965
#
# Disc length: 3669 seconds
#
# Revision: 3
# Processed by: cddbd v1.5.2PL0 Copyright (c) Steve Scherf et al.
# Submitted via: EasyCDDAExtractor 12.0.1.1
#
DISCID=ec0e5312
DTITLE=Gold Star Ballroom - Rumba
DYEAR=2003
DGENRE=Ballroom
TTITLE0=RB 26 - Babe
TTITLE1=RB 23 - Chan-Chan
TTITLE2=RB 25 - Falling Into You
TTITLE3=RB 26 - Goldfinger
TTITLE4=RB 23 - Here, There And Everywhere
TTITLE5=RB 26 - Hey
TTITLE6=RB 26 - How Will I Know
TTITLE7=RB 24 - Johnny Guitar
TTITLE8=RB 26 - Killing Me Softly
TTITLE9=RB 27 - Lean On Me
TTITLE10=RB 24 - Licence To Kill
TTITLE11=RB 26 - Take My Breath Away
TTITLE12=RB 26 - The Best Of My Love
TTITLE13=RB 26 - Abrazame
TTITLE14=RB 26 - Loving You
TTITLE15=RB 24 - Nobody Knows
TTITLE16=RB 25 - You've Got A Friend
TTITLE17=RB 26 - Diamante
EXTD=Gold Star, SP 11222
EXTT0=
EXTT1=
EXTT2=
EXTT3=
EXTT4=
EXTT5=
EXTT6=
EXTT7=
EXTT8=
EXTT9=
EXTT10=
EXTT11=
EXTT12=
EXTT13=
EXTT14=
EXTT15=
EXTT16=
EXTT17=
PLAYORDER=
